<svg width="188" height="36" viewBox="0 0 188 36" fill="none" xmlns="http://www.w3.org/2000/svg">
<rect width="35.2621" height="35.2621" rx="7.03142" fill="#D9D9D9"/>
<rect width="35.2621" height="35.2621" rx="7.03142" fill="url(#paint0_linear_295_489)"/>
<path d="M20.6067 8.50793H14.6559H8.70508V14.59V20.6721V26.7542H14.6559V20.6721H20.6067V14.59H26.5574V8.50793H20.6067Z" fill="#FFEDE8"/>
<path d="M47.3164 25.4446V9.80671H57.0806V11.8983H49.7439V16.8508H56.4629V18.899H49.7439V25.4446H47.3164Z" fill="black"/>
<path d="M59.7361 12.2884C58.9775 12.2884 58.3706 11.6815 58.3706 10.9446C58.3706 10.1968 58.9775 9.58997 59.7361 9.58997C60.5055 9.58997 61.1016 10.1968 61.1016 10.9446C61.1016 11.6815 60.5055 12.2884 59.7361 12.2884ZM58.5657 25.4446V14.044H60.9065V25.4446H58.5657Z" fill="black"/>
<path d="M63.0093 25.4446V9.80671H65.3501V18.9098H65.4043L69.9775 14.044H72.7302L68.0486 18.964L72.9144 25.4446H70.1943L66.3255 20.3728L65.3501 21.3373V25.4446H63.0093Z" fill="black"/>
<path d="M73.6409 25.4446V14.044H75.9817V15.9947H76.0359C76.4043 14.6617 77.358 13.8273 78.6585 13.8273C78.9944 13.8273 79.287 13.8814 79.4712 13.9139V16.0922C79.287 16.0163 78.8752 15.9622 78.42 15.9622C76.9137 15.9622 75.9817 16.9483 75.9817 18.6497V25.4446H73.6409Z" fill="black"/>
<path d="M89.1713 25.4446V19.0399L83.666 9.80671H86.3645L90.3525 16.7099H90.4284L94.4164 9.80671H97.1148L91.5988 19.0399V25.4446H89.1713Z" fill="black"/>
<path d="M100.8 25.6721C97.4512 25.6721 95.4247 23.3855 95.4247 19.7876V19.7768C95.4247 16.2114 97.4837 13.8273 100.681 13.8273C103.878 13.8273 105.839 16.1247 105.839 19.5492V20.3403H97.7655C97.8088 22.4969 98.9901 23.754 100.854 23.754C102.241 23.754 103.162 23.0387 103.455 22.1826L103.487 22.0959H105.709L105.687 22.2151C105.319 24.0249 103.563 25.6721 100.8 25.6721ZM100.691 15.7454C99.1743 15.7454 98.0039 16.7749 97.798 18.6823H103.52C103.325 16.7099 102.22 15.7454 100.691 15.7454Z" fill="black"/>
<path d="M111.215 25.6721C108.961 25.6721 107.877 24.7185 107.877 22.4427V15.908H106.24V14.044H107.877V11.0746H110.272V14.044H112.407V15.908H110.272V22.3018C110.272 23.4614 110.792 23.8082 111.778 23.8082C112.027 23.8082 112.233 23.7865 112.407 23.7648V25.5746C112.136 25.618 111.692 25.6721 111.215 25.6721Z" fill="black"/>
<path d="M117.078 25.6505C114.802 25.6505 113.274 24.2525 113.274 22.2043V22.1826C113.274 20.1994 114.813 18.9857 117.511 18.8231L120.611 18.6389V17.7828C120.611 16.5257 119.798 15.7671 118.346 15.7671C116.991 15.7671 116.157 16.4065 115.962 17.3168L115.94 17.4143H113.729L113.74 17.2951C113.903 15.3336 115.604 13.8273 118.411 13.8273C121.196 13.8273 122.962 15.3011 122.962 17.5877V25.4446H120.611V23.6456H120.567C119.906 24.8702 118.584 25.6505 117.078 25.6505ZM115.637 22.1501C115.637 23.1471 116.46 23.7757 117.717 23.7757C119.365 23.7757 120.611 22.6594 120.611 21.1748V20.2861L117.826 20.4595C116.417 20.5462 115.637 21.1639 115.637 22.1284V22.1501Z" fill="black"/>
<path d="M124.924 25.4446V9.80671H127.265V18.9098H127.319L131.893 14.044H134.645L129.964 18.964L134.829 25.4446H132.109L128.241 20.3728L127.265 21.3373V25.4446H124.924Z" fill="black"/>
<path d="M139.912 25.6721C136.586 25.6721 134.505 23.3855 134.505 19.7334V19.7226C134.505 16.1139 136.629 13.8273 139.88 13.8273C142.817 13.8273 144.594 15.7129 144.789 17.8586L144.8 17.9345H142.568L142.546 17.8478C142.297 16.7316 141.43 15.7888 139.902 15.7888C138.081 15.7888 136.9 17.3059 136.9 19.7443V19.7551C136.9 22.2476 138.103 23.7106 139.912 23.7106C141.354 23.7106 142.275 22.8762 142.557 21.6408L142.568 21.5541H144.822L144.811 21.6299C144.562 23.9165 142.654 25.6721 139.912 25.6721Z" fill="black"/>
<path d="M146.123 25.4446V9.80671H148.463V15.9188H148.518C149.124 14.5967 150.349 13.8273 152.05 13.8273C154.489 13.8273 156.093 15.6479 156.093 18.4005V25.4446H153.752V18.8448C153.752 16.9592 152.798 15.8321 151.151 15.8321C149.536 15.8321 148.463 17.0675 148.463 18.8448V25.4446H146.123Z" fill="black"/>
<path d="M159.192 12.2884C158.434 12.2884 157.827 11.6815 157.827 10.9446C157.827 10.1968 158.434 9.58997 159.192 9.58997C159.962 9.58997 160.558 10.1968 160.558 10.9446C160.558 11.6815 159.962 12.2884 159.192 12.2884ZM158.022 25.4446V14.044H160.363V25.4446H158.022Z" fill="black"/>
<path d="M162.422 25.4446V9.80671H164.763V25.4446H162.422Z" fill="black"/>
<path d="M170.074 25.6505C167.798 25.6505 166.27 24.2525 166.27 22.2043V22.1826C166.27 20.1994 167.809 18.9857 170.507 18.8231L173.607 18.6389V17.7828C173.607 16.5257 172.794 15.7671 171.342 15.7671C169.987 15.7671 169.153 16.4065 168.958 17.3168L168.936 17.4143H166.725L166.736 17.2951C166.898 15.3336 168.6 13.8273 171.407 13.8273C174.192 13.8273 175.958 15.3011 175.958 17.5877V25.4446H173.607V23.6456H173.563C172.902 24.8702 171.58 25.6505 170.074 25.6505ZM168.632 22.1501C168.632 23.1471 169.456 23.7757 170.713 23.7757C172.36 23.7757 173.607 22.6594 173.607 21.1748V20.2861L170.821 20.4595C169.413 20.5462 168.632 21.1639 168.632 22.1284V22.1501Z" fill="black"/>
<path d="M177.79 25.4446V14.044H180.131V15.9947H180.185C180.554 14.6617 181.507 13.8273 182.808 13.8273C183.144 13.8273 183.436 13.8814 183.62 13.9139V16.0922C183.436 16.0163 183.024 15.9622 182.569 15.9622C181.063 15.9622 180.131 16.9483 180.131 18.6497V25.4446H177.79Z" fill="black"/>
<path d="M185.897 12.2884C185.138 12.2884 184.531 11.6815 184.531 10.9446C184.531 10.1968 185.138 9.58997 185.897 9.58997C186.666 9.58997 187.262 10.1968 187.262 10.9446C187.262 11.6815 186.666 12.2884 185.897 12.2884ZM184.726 25.4446V14.044H187.067V25.4446H184.726Z" fill="black"/>
<defs>
<linearGradient id="paint0_linear_295_489" x1="-7.16858" y1="-3.77291" x2="27.2768" y2="36.0082" gradientUnits="userSpaceOnUse">
<stop stop-color="#F86742"/>
<stop offset="1" stop-color="#FD5426"/>
</linearGradient>
</defs>
</svg>
